# xmcd
#
# Track frame offsets:
#	150
#	14784
#	26859
#	40219
#	51548
#	64566
#	75452
#	88045
#	100060
#	114475
#	126936
#	140618
#	152770
#	163792
#	175187
#
# Disc length: 2490 seconds
# Revision: 0
# Processed by: cddbd v1.5.2PL0 Copyright (c) Steve Scherf et al.
# Submitted via: dBpowerAMP V12.0
#
DISCID=cc09b80f
DTITLE=Johnny Watson - Johnny "Guitar" Watson
DYEAR=1963
DGENRE=Blues
TTITLE0=Cuttin' In
TTITLE1=Embraceable You
TTITLE2=Broke and Lonely
TTITLE3=What You Do To Me
TTITLE4=Gangster of Love
TTITLE5=Highway 60
TTITLE6=Those Lonely, Lonely Feelings
TTITLE7=Posin'
TTITLE8=That's The ChanceYou've Got to Take
TTITLE9=I Just Wants Me Some Love
TTITLE10=Sweet Lovin' Mama
TTITLE11=You Can't Take it With You
TTITLE12=I Got Eyes [Bonus Track]
TTITLE13=What's Going On [Bonus Track]
TTITLE14=Space Guitar [Bonus Track]
EXTD=
EXTT0=
EXTT1=
EXTT2=
EXTT3=
EXTT4=
EXTT5=
EXTT6=
EXTT7=
EXTT8=
EXTT9=
EXTT10=
EXTT11=
EXTT12=
EXTT13=
EXTT14=
PLAYORDER=
